<?xml version="1.0" encoding="UTF-8"?>
<svg xmlns="http://www.w3.org/2000/svg" xmlns:xlink="http://www.w3.org/1999/xlink" width="64pt" height="64pt" viewBox="0 0 64 64" version="1.1">
<g id="surface9551205">
<path style=" stroke:none;fill-rule:nonzero;fill:rgb(100%,100%,100%);fill-opacity:1;" d="M 32 3 C 16 3 3 16 3 32 C 3 48 16 61 32 61 C 48 61 61 48 61 32 C 61 16 48 3 32 3 Z M 32 6 C 46.351562 6 58 17.648438 58 32 C 58 46.351562 46.351562 58 32 58 C 17.648438 58 6 46.351562 6 32 C 6 17.648438 17.648438 6 32 6 Z M 35.851562 18.480469 C 35.261719 18.523438 34.738281 18.898438 34.550781 19.5 L 26.550781 43.5 C 26.300781 44.300781 26.75 45.148438 27.550781 45.402344 C 27.699219 45.5 27.851562 45.5 28 45.5 C 28.648438 45.5 29.199219 45.101562 29.402344 44.449219 L 37.402344 20.449219 C 37.652344 19.648438 37.25 18.800781 36.449219 18.550781 C 36.25 18.488281 36.046875 18.464844 35.851562 18.480469 Z M 22.019531 24.96875 C 21.636719 24.949219 21.25 25.074219 20.949219 25.351562 L 14.902344 30.902344 C 14.601562 31.199219 14.402344 31.601562 14.402344 32 C 14.402344 32.398438 14.601562 32.800781 14.902344 33.097656 L 20.949219 38.648438 C 21.25 38.902344 21.601562 39.050781 21.949219 39.050781 C 22.351562 39.050781 22.75 38.898438 23.050781 38.550781 C 23.601562 37.949219 23.550781 37 22.949219 36.449219 L 18.101562 32 L 22.949219 27.550781 C 23.550781 27 23.601562 26.050781 23.050781 25.449219 C 22.773438 25.148438 22.398438 24.988281 22.019531 24.96875 Z M 42.03125 24.96875 C 41.648438 24.988281 41.273438 25.148438 41 25.449219 C 40.449219 26.050781 40.5 27 41.097656 27.550781 L 45.949219 32 L 41.097656 36.449219 C 40.449219 37 40.398438 37.949219 40.949219 38.550781 C 41.25 38.851562 41.648438 39.050781 42.050781 39.050781 C 42.398438 39.050781 42.800781 38.902344 43.050781 38.648438 L 49.097656 33.097656 C 49.398438 32.800781 49.597656 32.398438 49.597656 32 C 49.597656 31.601562 49.398438 31.199219 49.097656 30.902344 L 43.097656 25.351562 C 42.800781 25.074219 42.414062 24.949219 42.03125 24.96875 Z M 42.03125 24.96875 "/>
</g>
</svg>
