<?xml version="1.0"?><svg fill="#000000" xmlns="http://www.w3.org/2000/svg" viewBox="0 0 128 128" width="64px" height="64px">    <path d="M 64 6 C 32 6 6 32 6 64 C 6 96 32 122 64 122 C 96 122 122 96 122 64 C 122 32 96 6 64 6 z M 64 12 C 92.7 12 116 35.3 116 64 C 116 92.7 92.7 116 64 116 C 35.3 116 12 92.7 12 64 C 12 35.3 35.3 12 64 12 z M 71.701172 36.960938 C 70.524609 37.05 69.474609 37.8 69.099609 39 L 53.099609 87 C 52.599609 88.6 53.499609 90.300781 55.099609 90.800781 C 55.399609 91.000781 55.7 91 56 91 C 57.3 91 58.400781 90.200391 58.800781 88.900391 L 74.800781 40.900391 C 75.300781 39.300391 74.500391 37.599609 72.900391 37.099609 C 72.500391 36.974609 72.093359 36.93125 71.701172 36.960938 z M 44.037109 49.9375 C 43.274609 49.9 42.500391 50.149219 41.900391 50.699219 L 29.800781 61.800781 C 29.200781 62.400781 28.800781 63.2 28.800781 64 C 28.800781 64.8 29.200781 65.599219 29.800781 66.199219 L 41.900391 77.300781 C 42.500391 77.800781 43.200391 78.099609 43.900391 78.099609 C 44.700391 78.099609 45.499609 77.799609 46.099609 77.099609 C 47.199609 75.899609 47.100391 74.000391 45.900391 72.900391 L 36.199219 64 L 45.900391 55.099609 C 47.100391 53.999609 47.199609 52.100391 46.099609 50.900391 C 45.549609 50.300391 44.799609 49.975 44.037109 49.9375 z M 84.0625 49.9375 C 83.3 49.975 82.55 50.300391 82 50.900391 C 80.9 52.100391 80.999219 53.999609 82.199219 55.099609 L 91.900391 64 L 82.199219 72.900391 C 80.899219 74.000391 80.800391 75.899609 81.900391 77.099609 C 82.500391 77.699609 83.299609 78.099609 84.099609 78.099609 C 84.799609 78.099609 85.599609 77.800781 86.099609 77.300781 L 98.199219 66.199219 C 98.799219 65.599219 99.199219 64.8 99.199219 64 C 99.199219 63.2 98.799219 62.400781 98.199219 61.800781 L 86.199219 50.699219 C 85.599219 50.149219 84.825 49.9 84.0625 49.9375 z"/></svg>